#!OML:ASF H:\Male1\Project 1\Capture day 1\Session 1\Male1.ASF
:FULLY-SPECIFIED
:DEGREES
554
root 20.0923 16.0838 1.69461 3.08417 61.5514 -370.681
lowerback 21.6919 -0.679538 -1.08273
upperback 10.167 -0.560412 0.418568
thorax -1.03573 -0.121609 1.1794
lowerneck 0.448795 9.78098 18.94
upperneck -0.908543 13.3789 -19.4506
head 2.34044 6.71201 -8.55939
rclavicle -4.69132e-014 1.03368e-014
rhumerus -45.9181 -18.3481 -68.8405
rradius 31.5459
rwrist -20.6375
rhand -22.6683 3.33864
rfingers 7.12502
rthumb 3.76347 -26.6079
lclavicle -4.69132e-014 1.03368e-014
lhumerus -30.4886 -4.18319 71.4774
lradius 58.8799
lwrist 17.1458
lhand -27.2609 17.9451
lfingers 7.12502
lthumb -0.672073 47.9238
rfemur -63.4739 8.85865 16.6683
rtibia 83.0751
rfoot -9.0904 -6.68639
rtoes -37.8871
lfemur -10.4892 -7.49419 -20.3515
ltibia 23.124
lfoot -10.859 23.8876
ltoes -0.0332061
555
root 20.3606 15.9791 1.82336 4.26336 63.126 -368.754
lowerback 20.7686 -0.933828 -1.37739
upperback 10.2731 -0.9207 0.539877
thorax -0.44098 -0.315132 1.54073
lowerneck 0.118148 9.57743 18.7332
upperneck -0.43562 13.1041 -19.4215
head 2.46144 6.55598 -8.51944
rclavicle 7.95139e-015 -7.95139e-015
rhumerus -46.4818 -18.3339 -68.5017
rradius 31.3614
rwrist -19.8327
rhand -22.0085 3.44378
rfingers 7.12502
rthumb 4.4006 -26.4905
lclavicle 7.95139e-015 -7.95139e-015
lhumerus -30.611 -3.77957 71.718
lradius 60.2707
lwrist 18.4962
lhand -27.7106 17.9382
lfingers 7.12502
lthumb -1.10644 47.9151
rfemur -59.4493 9.30625 16.0413
rtibia 72.6295
rfoot -8.47171 -6.83348
rtoes -38.9358
lfemur -10.3171 -6.49566 -21.6516
ltibia 25.7923
lfoot -11.5437 22.3088
ltoes -1.71569
556
root 20.6394 15.8553 1.95881 5.86767 64.8427 -366.23
lowerback 19.8184 -1.15515 -1.81377
upperback 10.3769 -1.25802 0.635068
thorax 0.177071 -0.504885 1.93856
lowerneck -0.310946 9.30255 18.4345
upperneck 0.221493 12.7341 -19.2583
head 2.61766 6.34563 -8.42352
rclavicle -3.97569e-015 2.10712e-014
rhumerus -47.1959 -18.3309 -68.0524
rradius 31.3329
rwrist -19.1821
rhand -21.4065 3.7632
rfingers 7.12502
rthumb 4.98182 -26.1582
lclavicle -3.97569e-015 2.10712e-014
lhumerus -30.8555 -3.59133 72.1543
lradius 61.763
lwrist 19.8156
lhand -28.0418 17.7894
lfingers 7.12502
lthumb -1.42632 47.7644
rfemur -55.1711 9.69919 15.0639
rtibia 63.1128
rfoot -7.72799 -7.58883
rtoes -38.3825
lfemur -9.85883 -5.55818 -23.0252
ltibia 28.3603
lfoot -12.2099 20.7127
ltoes -3.33685
557
root 20.9223 15.7128 2.09855 7.71091 66.6579 -363.301
lowerback 18.9139 -1.32912 -2.26715
upperback 10.468 -1.52976 0.72975
thorax 0.766416 -0.6655 2.32445
lowerneck -0.828937 8.95431 17.9835
upperneck 1.08094 12.2682 -18.8979
head 2.80658 6.08141 -8.24215
rclavicle 3.43897e-014 4.77083e-015
rhumerus -48.0884 -18.2636 -67.5491
rradius 31.451
rwrist -18.7461
rhand -20.8316 4.20891
rfingers 7.12502
rthumb 5.53692 -25.6988
lclavicle 3.43897e-014 4.77083e-015
lhumerus -31.1574 -3.66484 72.7647
lradius 63.2201
lwrist 20.949
lhand -28.1661 17.4452
lfingers 7.12502
lthumb -1.54636 47.4193
rfemur -50.7912 10.2011 14.0042
rtibia 55.0867
rfoot -7.83865 -9.36583
rtoes -35.5487
lfemur -9.21694 -4.66834 -24.2865
ltibia 31.0271
lfoot -12.8563 19.0768
ltoes -4.95973
558
root 21.2024 15.5642 2.23838 9.5705 68.4809 -360.217
lowerback 18.1419 -1.4243 -2.61693
upperback 10.5326 -1.67948 0.837683
thorax 1.2571 -0.762208 2.6418
lowerneck -1.43976 8.52563 17.376
upperneck 2.14744 11.6974 -18.3355
head 3.03303 5.76013 -7.97464
rclavicle -3.67752e-015 -6.20208e-014
rhumerus -49.1199 -18.0892 -67.0642
rradius 31.6642
rwrist -18.4946
rhand -20.23 4.59162
rfingers 7.12502
rthumb 6.11777 -25.3
lclavicle -3.67752e-015 -6.20208e-014
lhumerus -31.4628 -4.00747 73.514
lradius 64.5031
lwrist 21.7599
lhand -27.9978 16.8119
lfingers 7.12502
lthumb -1.38383 46.7872
rfemur -46.4628 10.9148 13.123
rtibia 48.9431
rfoot -9.36103 -11.9825
rtoes -30.7086
lfemur -8.53013 -3.84398 -25.2659
ltibia 33.9463
lfoot -13.4122 17.3987
ltoes -6.35888
559
root 21.473 15.4218 2.37392 11.0063 70.1614 -357.46
lowerback 17.6114 -1.40368 -2.74338
upperback 10.5602 -1.64871 0.979528
thorax 1.56758 -0.757753 2.84459
lowerneck -2.12677 8.02818 16.6785
upperneck 3.37485 11.0413 -17.679
head 3.30178 5.39408 -7.66789
rclavicle 2.03257e-014 -2.65129e-014
rhumerus -50.157 -17.7572 -66.682
rradius 31.9292
rwrist -18.2942
rhand -19.5206 4.60542
rfingers 7.12502
rthumb 6.80257 -25.2653
lclavicle 2.03257e-014 -2.65129e-014
lhumerus -31.7784 -4.51625 74.3672
lradius 65.5096
lwrist 22.2078
lhand -27.5207 15.6707
lfingers 7.12502
lthumb -0.923021 45.6485
rfemur -42.3394 11.729 12.7763
rtibia 44.7997
rfoot -12.3456 -14.7024
rtoes -25.223
lfemur -7.9341 -3.03132 -25.7988
ltibia 37.2193
lfoot -13.6543 15.7144
ltoes -7.6171
560
root 21.7337 15.294 2.50069 11.8296 71.59 -355.262
lowerback 17.3598 -1.28852 -2.71374
upperback 10.5476 -1.47947 1.17838
thorax 1.67715 -0.675268 3.0065
lowerneck -2.74591 7.53358 15.9615
upperneck 4.60193 10.414 -17.1273
head 3.58105 5.04606 -7.39599
rclavicle 2.97183e-014 1.33186e-014
rhumerus -50.9496 -17.0268 -66.5079
rradius 32.1829
rwrist -18.0324
rhand -18.6947 4.29069
rfingers 7.12502
rthumb 7.59988 -25.5528
lclavicle 2.97183e-014 1.33186e-014
lhumerus -32.2144 -4.82651 75.2897
lradius 66.2061
lwrist 22.1102
lhand -26.5361 14.1153
lfingers 7.12502
lthumb 0.0279485 44.095
rfemur -38.5301 12.165 13.1052
rtibia 42.4397
rfoot -15.7104 -16.8761
rtoes -21.4093
lfemur -7.54716 -2.17954 -25.9138
ltibia 40.9101
lfoot -13.3519 14.0657
ltoes -9.09665
